<svg xmlns="http://www.w3.org/2000/svg" xmlns:xlink="http://www.w3.org/1999/xlink" viewBox="0 0 64 64" version="1.1">
  <g id="surface1">
    <path style=" " d="M 55.828125 2 C 53.425781 2 51.164063 2.9375 49.464844 4.636719 L 36.644531 17.453125 L 7.015625 10.871094 C 6.007813 10.644531 4.96875 10.945313 4.242188 11.675781 L 2.382813 13.535156 C 1.945313 13.972656 1.734375 14.574219 1.808594 15.1875 C 1.882813 15.800781 2.226563 16.335938 2.753906 16.65625 L 24.402344 29.859375 L 16.050781 39.972656 L 7.054688 37.773438 C 6.042969 37.527344 4.957031 37.828125 4.21875 38.5625 L 3.125 39.660156 C 2.679688 40.109375 2.472656 40.722656 2.5625 41.351563 C 2.648438 41.980469 3.015625 42.515625 3.570313 42.824219 L 14.890625 49.109375 L 21.175781 60.429688 C 21.484375 60.984375 22.019531 61.351563 22.648438 61.4375 C 23.269531 61.523438 23.890625 61.320313 24.339844 60.875 L 25.4375 59.777344 C 26.171875 59.042969 26.472656 57.957031 26.226563 56.941406 L 24.027344 47.949219 L 34.140625 39.59375 L 47.34375 61.246094 C 47.664063 61.769531 48.199219 62.117188 48.8125 62.1875 C 48.894531 62.199219 48.972656 62.203125 49.050781 62.203125 C 49.578125 62.203125 50.082031 62 50.464844 61.621094 L 52.324219 59.761719 C 53.050781 59.03125 53.355469 57.996094 53.128906 56.988281 L 46.546875 27.355469 L 59.363281 14.535156 C 61.0625 12.835938 62 10.578125 62 8.171875 L 62 5 C 62 3.347656 60.652344 2 59 2 Z M 55.828125 4 L 59 4 C 59.550781 4 60 4.449219 60 5 L 60 8.171875 C 60 10.042969 59.269531 11.800781 57.949219 13.121094 L 44.746094 26.328125 C 44.503906 26.566406 44.402344 26.917969 44.472656 27.25 L 51.179688 57.421875 C 51.253906 57.757813 51.152344 58.101563 50.910156 58.34375 L 49.050781 60.203125 L 35.65625 38.242188 L 38.636719 35.265625 C 39.027344 34.871094 39.027344 34.242188 38.636719 33.847656 C 38.246094 33.457031 37.613281 33.457031 37.222656 33.847656 L 33.71875 37.351563 L 22.269531 46.808594 C 21.972656 47.050781 21.84375 47.445313 21.9375 47.816406 L 24.285156 57.421875 C 24.367188 57.757813 24.265625 58.121094 24.019531 58.363281 L 22.925781 59.460938 L 16.863281 48.550781 L 21.707031 43.707031 C 22.097656 43.316406 22.097656 42.683594 21.707031 42.292969 C 21.316406 41.902344 20.6875 41.902344 20.296875 42.292969 L 15.453125 47.136719 L 4.539063 41.074219 L 5.636719 39.980469 C 5.882813 39.734375 6.238281 39.632813 6.578125 39.71875 L 16.1875 42.0625 C 16.554688 42.15625 16.949219 42.027344 17.191406 41.730469 L 26.652344 30.28125 L 29.589844 27.34375 C 29.980469 26.949219 29.980469 26.320313 29.589844 25.925781 C 29.199219 25.535156 28.566406 25.535156 28.175781 25.925781 L 25.757813 28.34375 L 3.796875 14.949219 L 5.65625 13.089844 C 5.898438 12.847656 6.242188 12.746094 6.578125 12.820313 L 36.75 19.527344 C 37.082031 19.601563 37.433594 19.5 37.671875 19.257813 L 50.878906 6.050781 C 52.203125 4.730469 53.957031 4 55.828125 4 Z M 41.363281 20.222656 C 41.109375 20.222656 40.851563 20.320313 40.65625 20.515625 C 40.265625 20.90625 40.265625 21.539063 40.65625 21.929688 L 42.070313 23.34375 C 42.265625 23.539063 42.519531 23.636719 42.777344 23.636719 C 43.035156 23.636719 43.289063 23.539063 43.484375 23.34375 C 43.875 22.953125 43.875 22.320313 43.484375 21.929688 L 42.070313 20.515625 C 41.875 20.320313 41.617188 20.222656 41.363281 20.222656 Z M 37.828125 23.753906 C 37.574219 23.753906 37.316406 23.855469 37.121094 24.050781 C 36.730469 24.441406 36.730469 25.074219 37.121094 25.464844 L 38.535156 26.878906 C 38.730469 27.074219 38.984375 27.171875 39.242188 27.171875 C 39.5 27.171875 39.753906 27.074219 39.949219 26.878906 C 40.339844 26.488281 40.339844 25.855469 39.949219 25.464844 L 38.535156 24.050781 C 38.339844 23.855469 38.082031 23.753906 37.828125 23.753906 Z M 34.292969 27.292969 C 34.035156 27.292969 33.78125 27.390625 33.585938 27.585938 C 33.195313 27.976563 33.195313 28.609375 33.585938 29 L 35 30.414063 C 35.195313 30.609375 35.449219 30.707031 35.707031 30.707031 C 35.964844 30.707031 36.21875 30.609375 36.414063 30.414063 C 36.804688 30.023438 36.804688 29.390625 36.414063 29 L 35 27.585938 C 34.804688 27.390625 34.550781 27.292969 34.292969 27.292969 Z M 30.757813 30.828125 C 30.503906 30.828125 30.246094 30.925781 30.050781 31.121094 C 29.660156 31.511719 29.660156 32.144531 30.050781 32.535156 L 31.464844 33.949219 C 31.660156 34.144531 31.914063 34.242188 32.171875 34.242188 C 32.429688 34.242188 32.683594 34.144531 32.878906 33.949219 C 33.269531 33.558594 33.269531 32.925781 32.878906 32.535156 L 31.464844 31.121094 C 31.269531 30.925781 31.011719 30.828125 30.757813 30.828125 Z M 25.5 37.5 C 25.246094 37.5 24.988281 37.597656 24.792969 37.792969 L 23.292969 39.292969 C 22.902344 39.683594 22.902344 40.316406 23.292969 40.707031 C 23.488281 40.902344 23.742188 41 24 41 C 24.257813 41 24.511719 40.902344 24.707031 40.707031 L 26.207031 39.207031 C 26.597656 38.816406 26.597656 38.183594 26.207031 37.792969 C 26.011719 37.597656 25.753906 37.5 25.5 37.5 Z "></path>
  </g>
</svg>
